# File created by Blade
# Date/Time:  Tue Apr 07 20:22:14 2015
# Frame Rate: 120.000 fps
#------------------------------------------------------
:FULLY-SPECIFIED
:DEGREES
2094
root 1.630049 32.794606 -9.258590 16.476976 5.079384 -0.230118
Spine -16.077417 -6.479384 0.043196
Head 11.539548 -5.031176 2.714727
LeftShoulder -14.954244 41.954704 10.160031
LeftArm 60.261464 15.923431 -71.413017
LeftForeArm 24.954614 -0.000000 98.034737
LeftHand -0.453543 -0.000000 -3.042815
LeftHandThumb1 -26.253704 0.000000 33.147579
RightShoulder -6.126146 -11.448287 -15.852025
RightArm 11.160808 -16.096773 87.121279
RightForeArm -27.478691 -0.000000 88.123565
RightHand 2.549579 -0.000000 0.934555
RightHandThumb1 -24.326973 -0.000000 -32.862282
LeftUpLeg -14.181184 -3.299228 1.318889
LeftLeg -0.399747 -0.000000 0.000000
LeftFoot -4.822232 3.135949 -17.528195
LeftToeBase -5.142284 -0.000000 0.000000
RightUpLeg -10.800666 -5.596450 1.209868
RightLeg -3.188483 -0.000000 0.000000
RightFoot -7.004992 -7.862193 6.538037
RightToeBase 2.233132 -0.000000 -0.000000
2095
root 1.630300 32.793171 -9.253096 16.461065 4.932664 -0.235664
Spine -16.205289 -6.540146 0.018709
Head 11.794993 -4.864561 2.688961
LeftShoulder -14.546227 41.590088 10.650574
LeftArm 60.425113 15.653374 -71.663790
LeftForeArm 24.867387 -0.000000 98.998242
LeftHand -1.380017 -0.000000 -4.942579
LeftHandThumb1 -26.253704 0.000000 33.147579
RightShoulder -6.071166 -10.980287 -15.851711
RightArm 11.801772 -16.172072 86.641088
RightForeArm -27.541509 -0.000000 89.079050
RightHand 1.775485 -0.000000 2.288981
RightHandThumb1 -24.326973 -0.000000 -32.862282
LeftUpLeg -14.122840 -3.201962 1.291875
LeftLeg -0.435400 -0.000000 0.000000
LeftFoot -4.829857 3.163450 -17.507046
LeftToeBase -5.158165 -0.000000 0.000000
RightUpLeg -10.788269 -5.531226 1.194497
RightLeg -3.186072 -0.000000 0.000000
RightFoot -7.003296 -7.820312 6.518814
RightToeBase 2.223053 -0.000000 -0.000000
2096
root 1.632661 32.791252 -9.244618 16.397571 4.791108 -0.229786
Spine -16.290186 -6.643805 0.013147
Head 12.046606 -4.682945 2.593094
LeftShoulder -14.237858 41.394792 11.023070
LeftArm 60.710187 15.299198 -71.852952
LeftForeArm 24.753660 0.000000 99.873961
LeftHand -2.178921 -0.000000 -6.877122
LeftHandThumb1 -26.253704 0.000000 33.147579
RightShoulder -5.941607 -10.508510 -15.934759
RightArm 12.423580 -16.287559 86.188793
RightForeArm -27.625222 0.000000 89.960383
RightHand 1.005033 -0.000000 3.687906
RightHandThumb1 -24.326973 -0.000000 -32.862282
LeftUpLeg -14.012695 -3.159545 1.259486
LeftLeg -0.469965 -0.000000 0.000000
LeftFoot -4.850170 3.242303 -17.486532
LeftToeBase -5.242823 -0.000000 0.000000
RightUpLeg -10.718706 -5.498094 1.166323
RightLeg -3.190409 -0.000000 0.000000
RightFoot -7.006528 -7.759127 6.481134
RightToeBase 2.249183 -0.000000 -0.000000
2097
root 1.635650 32.790292 -9.234308 16.327496 4.633839 -0.227863
Spine -16.349796 -6.726453 0.001767
Head 12.221624 -4.472244 2.524065
LeftShoulder -13.972873 41.282783 11.361216
LeftArm 61.031222 14.953604 -72.038837
LeftForeArm 24.494083 0.000000 100.726335
LeftHand -3.167070 -0.000000 -8.865486
LeftHandThumb1 -26.253704 0.000000 33.147579
RightShoulder -5.877176 -10.041441 -15.999323
RightArm 13.084971 -16.459470 85.696418
RightForeArm -27.463638 0.000000 90.777231
RightHand 0.262093 0.000000 4.844433
RightHandThumb1 -24.326973 -0.000000 -32.862282
LeftUpLeg -13.899770 -3.097431 1.226859
LeftLeg -0.489628 -0.000000 0.000000
LeftFoot -4.872269 3.311944 -17.446500
LeftToeBase -5.244532 -0.000000 0.000000
RightUpLeg -10.640280 -5.435961 1.131972
RightLeg -3.196340 -0.000000 0.000000
RightFoot -7.006534 -7.705092 6.460046
RightToeBase 2.266828 -0.000000 -0.000000
2098
root 1.639836 32.790035 -9.224685 16.280227 4.464628 -0.198537
Spine -16.446215 -6.917272 0.021213
Head 12.402169 -4.117478 2.382452
LeftShoulder -13.799353 41.142313 11.623472
LeftArm 61.184328 14.579383 -72.258311
LeftForeArm 24.055290 -0.000000 101.544456
LeftHand -4.068886 0.000000 -10.761970
LeftHandThumb1 -26.253704 0.000000 33.147579
RightShoulder -5.670156 -9.538342 -16.125274
RightArm 13.707584 -16.612345 85.324289
RightForeArm -27.387647 -0.000000 91.519159
RightHand -0.368998 0.000000 5.980893
RightHandThumb1 -24.326973 -0.000000 -32.862282
LeftUpLeg -13.755998 -3.226533 1.215918
LeftLeg -0.621964 -0.000000 0.000000
LeftFoot -4.874993 3.553246 -17.540052
LeftToeBase -5.194692 -0.000000 0.000000
RightUpLeg -10.589786 -5.387841 1.072365
RightLeg -3.193289 -0.000000 0.000000
RightFoot -7.014998 -7.626797 6.439284
RightToeBase 2.277325 -0.000000 -0.000000
2099
root 1.641459 32.790248 -9.213983 16.226544 4.276163 -0.197532
Spine -16.520318 -7.017290 0.028839
Head 12.529090 -3.890007 2.289017
LeftShoulder -13.607638 41.060067 11.929489
LeftArm 61.376807 14.242727 -72.454725
LeftForeArm 23.537765 -0.000000 102.273902
LeftHand -4.886299 -0.000000 -12.499058
LeftHandThumb1 -26.253704 0.000000 33.147579
RightShoulder -5.528696 -9.022596 -16.245743
RightArm 14.241215 -16.721666 84.988378
RightForeArm -27.013377 -0.000000 92.240427
RightHand -0.840760 -0.000000 7.001567
RightHandThumb1 -24.326973 -0.000000 -32.862282
LeftUpLeg -13.658190 -3.193617 1.196692
LeftLeg -0.638392 -0.000000 0.000000
LeftFoot -4.894445 3.655381 -17.553335
LeftToeBase -5.267369 -0.000000 0.000000
RightUpLeg -10.541123 -5.324309 1.043702
RightLeg -3.182166 -0.000000 0.000000
RightFoot -6.996989 -7.557841 6.416041
RightToeBase 2.178381 -0.000000 -0.000000
2100
root 1.641604 32.789524 -9.201110 16.148656 4.070427 -0.210750
Spine -16.557832 -7.053358 0.027955
Head 12.611696 -3.704108 2.204077
LeftShoulder -13.420027 41.059386 12.213533
LeftArm 61.629522 13.911421 -72.565728
LeftForeArm 22.872552 -0.000000 102.927810
LeftHand -5.737875 -0.000000 -13.991022
LeftHandThumb1 -26.253704 0.000000 33.147579
RightShoulder -5.445550 -8.530146 -16.368301
RightArm 14.769256 -16.821216 84.696572
RightForeArm -26.326666 0.000000 92.847731
RightHand -1.226325 -0.000000 8.470241
RightHandThumb1 -24.326973 -0.000000 -32.862282
LeftUpLeg -13.596662 -2.920794 1.124375
LeftLeg -0.513088 -0.000000 0.000000
LeftFoot -4.961373 3.573509 -17.483203
LeftToeBase -5.325507 -0.000000 0.000000
RightUpLeg -10.462751 -5.212311 1.017902
RightLeg -3.173988 -0.000000 0.000000
RightFoot -6.993637 -7.502302 6.374765
RightToeBase 2.242166 -0.000000 -0.000000
2101
root 1.644125 32.789088 -9.190741 16.073327 3.866159 -0.204923
Spine -16.589245 -7.136870 0.031868
Head 12.675995 -3.461521 2.116021
LeftShoulder -13.289666 41.060587 12.460161
LeftArm 61.803604 13.603348 -72.723834
LeftForeArm 22.267947 0.000000 103.501219
LeftHand -6.393374 -0.000000 -14.981973
LeftHandThumb1 -26.253704 0.000000 33.147579
RightShoulder -5.281520 -8.031168 -16.529266
RightArm 15.237654 -16.918582 84.478405
RightForeArm -25.657448 -0.000000 93.364812
RightHand -1.429322 -0.000000 9.309976
RightHandThumb1 -24.326973 -0.000000 -32.862282
LeftUpLeg -13.498337 -2.845157 1.085183
LeftLeg -0.477745 -0.000000 0.000000
LeftFoot -5.017032 3.643952 -17.487042
LeftToeBase -5.378353 -0.000000 0.000000
RightUpLeg -10.409261 -5.150671 0.982995
RightLeg -3.131220 -0.000000 0.000000
RightFoot -7.013112 -7.434644 6.357185
RightToeBase 2.256532 -0.000000 -0.000000
2102
root 1.646206 32.789692 -9.177527 15.991869 3.651723 -0.206391
Spine -16.621783 -7.225921 0.058442
Head 12.713652 -3.188763 1.983217
LeftShoulder -13.156079 41.031821 12.688641
LeftArm 61.833255 13.318466 -72.881614
LeftForeArm 21.795156 -0.000000 104.043293
LeftHand -6.922720 -0.000000 -15.748777
LeftHandThumb1 -26.253704 0.000000 33.147579
RightShoulder -5.072723 -7.617538 -16.692187
RightArm 15.709399 -16.997067 84.287758
RightForeArm -24.957644 -0.000000 93.912645
RightHand -1.825100 -0.000000 10.093313
RightHandThumb1 -24.326973 -0.000000 -32.862282
LeftUpLeg -13.378708 -2.763474 1.050196
LeftLeg -0.469232 -0.000000 0.000000
LeftFoot -5.060245 3.734721 -17.482373
LeftToeBase -5.400454 -0.000000 0.000000
RightUpLeg -10.331664 -5.038196 0.939294
RightLeg -3.115896 -0.000000 0.000000
RightFoot -7.001763 -7.374294 6.361398
RightToeBase 2.125226 -0.000000 -0.000000
2103
root 1.649176 32.790618 -9.162359 15.905169 3.425512 -0.214063
Spine -16.636418 -7.238191 0.072922
Head 12.705848 -3.020154 1.859178
LeftShoulder -13.044958 41.047079 12.881617
LeftArm 61.920045 13.065728 -72.929733
LeftForeArm 21.546608 -0.000000 104.505765
LeftHand -7.300857 -0.000000 -15.990817
LeftHandThumb1 -26.253704 0.000000 33.147579
RightShoulder -4.926435 -7.278678 -16.832320
RightArm 16.159977 -17.086788 84.104455
RightForeArm -24.349870 -0.000000 94.462673
RightHand -1.966512 -0.000000 10.638800
RightHandThumb1 -24.326973 -0.000000 -32.862282
LeftUpLeg -13.242621 -2.705092 1.024903
LeftLeg -0.468615 -0.000000 0.000000
LeftFoot -5.116493 3.852996 -17.504686
LeftToeBase -5.365309 -0.000000 0.000000
RightUpLeg -10.259203 -4.964038 0.905785
RightLeg -3.077361 -0.000000 0.000000
RightFoot -6.993000 -7.241772 6.360952
RightToeBase 2.293417 -0.000000 -0.000000
2104
root 1.652535 32.791923 -9.147866 15.823625 3.186514 -0.209317
Spine -16.638520 -7.230689 0.064236
Head 12.662544 -2.891201 1.774374
LeftShoulder -12.927920 41.022261 13.074868
LeftArm 61.910568 12.859610 -73.025062
LeftForeArm 21.466073 -0.000000 104.948263
LeftHand -7.544333 -0.000000 -16.415652
LeftHandThumb1 -26.253704 0.000000 33.147579
RightShoulder -4.774936 -6.909273 -16.971038
RightArm 16.494969 -17.187315 83.991614
RightForeArm -23.990143 0.000000 95.020093
RightHand -2.001655 -0.000000 11.043793
RightHandThumb1 -24.326973 -0.000000 -32.862282
LeftUpLeg -13.113489 -2.636694 0.981874
LeftLeg -0.462561 -0.000000 0.000000
LeftFoot -5.164047 3.982827 -17.489795
LeftToeBase -5.411860 -0.000000 0.000000
RightUpLeg -10.210233 -4.891043 0.862611
RightLeg -3.000007 -0.000000 0.000000
RightFoot -7.002965 -7.146132 6.264892
RightToeBase 2.089952 -0.000000 -0.000000
